<svg width="21" height="21" viewBox="0 0 21 21" fill="none" xmlns="http://www.w3.org/2000/svg">
<path d="M20.9168 10.4999C20.9168 16.2447 16.2439 20.9166 10.5002 20.9166C4.75641 20.9166 0.0834961 16.2447 0.0834961 10.4999C0.0834961 4.75615 4.75641 0.0832291 10.5002 0.0832291C16.2439 0.0832291 20.9168 4.75615 20.9168 10.4999" fill="#969696"/>
<path d="M14.8968 8.9974C14.8968 9.19635 14.8208 9.39635 14.6687 9.54844L11.0541 13.1807C10.9072 13.3276 10.7083 13.4099 10.5 13.4099C10.2927 13.4099 10.0937 13.3276 9.94683 13.1807L6.33016 9.54844C6.02599 9.24323 6.02599 8.74948 6.33224 8.44427C6.63849 8.1401 7.13329 8.14115 7.43745 8.44635L10.5 11.5224L13.5625 8.44635C13.8666 8.14115 14.3604 8.1401 14.6666 8.44427C14.8208 8.59635 14.8968 8.7974 14.8968 8.9974" fill="white"/>
</svg>
